<mxfile host="app.diagrams.net" modified="2023-11-09T12:07:35.986Z" agent="Mozilla/5.0 (Windows NT 10.0; Win64; x64) AppleWebKit/537.36 (KHTML, like Gecko) Chrome/119.0.0.0 Safari/537.36" etag="zN-1fiF5KYL28dts4oEj" version="22.1.0" type="device">
  <diagram name="Сторінка-1" id="HdkMf-csHkkGVWXqi1Nt">
    <mxGraphModel dx="537" dy="758" grid="1" gridSize="10" guides="1" tooltips="1" connect="1" arrows="1" fold="1" page="1" pageScale="1" pageWidth="827" pageHeight="1169" math="0" shadow="0">
      <root>
        <mxCell id="0" />
        <mxCell id="1" parent="0" />
        <mxCell id="si5BGNmdZ8wJbr5AZOZr-1" value="" style="rounded=0;whiteSpace=wrap;html=1;" parent="1" vertex="1">
          <mxGeometry x="50" y="130" width="570" height="400" as="geometry" />
        </mxCell>
        <mxCell id="SxUi8WEkodUFzkZ-TZNS-1" value="&lt;u&gt;&amp;lt;&amp;lt;Смартфон&amp;gt;&amp;gt;&lt;/u&gt;" style="verticalAlign=top;align=center;shape=cube;size=10;direction=south;fontStyle=0;html=1;boundedLbl=1;spacingLeft=5;whiteSpace=wrap;" parent="1" vertex="1">
          <mxGeometry x="110" y="200" width="180" height="200" as="geometry" />
        </mxCell>
        <mxCell id="SxUi8WEkodUFzkZ-TZNS-2" value="&lt;u&gt;&amp;lt;&amp;lt;OC Android&amp;gt;&amp;gt;&lt;/u&gt;" style="verticalAlign=top;align=center;shape=cube;size=10;direction=south;html=1;boundedLbl=1;spacingLeft=5;whiteSpace=wrap;" parent="SxUi8WEkodUFzkZ-TZNS-1" vertex="1">
          <mxGeometry width="150" height="140" relative="1" as="geometry">
            <mxPoint x="10" y="50" as="offset" />
          </mxGeometry>
        </mxCell>
        <mxCell id="SxUi8WEkodUFzkZ-TZNS-4" value="*.apk&lt;br&gt;(Android&lt;br&gt;Studio)" style="rounded=0;whiteSpace=wrap;html=1;align=right;" parent="SxUi8WEkodUFzkZ-TZNS-1" vertex="1">
          <mxGeometry x="45" y="112.5" width="90" height="62.5" as="geometry" />
        </mxCell>
        <mxCell id="SxUi8WEkodUFzkZ-TZNS-5" value="" style="rounded=0;whiteSpace=wrap;html=1;" parent="SxUi8WEkodUFzkZ-TZNS-1" vertex="1">
          <mxGeometry x="22.5" y="125" width="33.75" height="12.5" as="geometry" />
        </mxCell>
        <mxCell id="SxUi8WEkodUFzkZ-TZNS-6" value="" style="rounded=0;whiteSpace=wrap;html=1;" parent="SxUi8WEkodUFzkZ-TZNS-1" vertex="1">
          <mxGeometry x="22.5" y="150" width="33.75" height="12.5" as="geometry" />
        </mxCell>
        <mxCell id="SxUi8WEkodUFzkZ-TZNS-7" value="" style="endArrow=none;dashed=1;html=1;dashPattern=1 3;strokeWidth=2;rounded=0;" parent="1" edge="1">
          <mxGeometry width="50" height="50" relative="1" as="geometry">
            <mxPoint x="331.3333384195964" y="400" as="sourcePoint" />
            <mxPoint x="330" y="200" as="targetPoint" />
          </mxGeometry>
        </mxCell>
        <mxCell id="SxUi8WEkodUFzkZ-TZNS-8" value="&lt;u&gt;&amp;lt;&amp;lt;Server&amp;gt;&amp;gt;&lt;/u&gt;" style="verticalAlign=top;align=center;shape=cube;size=10;direction=south;fontStyle=0;html=1;boundedLbl=1;spacingLeft=5;whiteSpace=wrap;" parent="1" vertex="1">
          <mxGeometry x="370" y="200" width="210" height="200" as="geometry" />
        </mxCell>
        <mxCell id="SxUi8WEkodUFzkZ-TZNS-9" value="&lt;u&gt;&amp;lt;&amp;lt;GCP&amp;gt;&amp;gt;&lt;/u&gt;" style="verticalAlign=top;align=center;shape=cube;size=10;direction=south;html=1;boundedLbl=1;spacingLeft=5;whiteSpace=wrap;" parent="SxUi8WEkodUFzkZ-TZNS-8" vertex="1">
          <mxGeometry width="180" height="140" relative="1" as="geometry">
            <mxPoint x="10" y="50" as="offset" />
          </mxGeometry>
        </mxCell>
        <mxCell id="SxUi8WEkodUFzkZ-TZNS-12" value="&lt;u&gt;&amp;lt;&amp;lt;FireBase&amp;gt;&amp;gt;&lt;/u&gt;" style="verticalAlign=top;align=center;shape=cube;size=10;direction=south;html=1;boundedLbl=1;spacingLeft=5;whiteSpace=wrap;" parent="SxUi8WEkodUFzkZ-TZNS-8" vertex="1">
          <mxGeometry x="20" y="90" width="150" height="90" as="geometry" />
        </mxCell>
        <mxCell id="SxUi8WEkodUFzkZ-TZNS-15" value="key-value" style="strokeWidth=2;html=1;shape=mxgraph.flowchart.database;whiteSpace=wrap;" parent="SxUi8WEkodUFzkZ-TZNS-8" vertex="1">
          <mxGeometry x="65" y="130" width="60" height="50" as="geometry" />
        </mxCell>
        <mxCell id="SxUi8WEkodUFzkZ-TZNS-10" value="" style="endArrow=none;html=1;rounded=0;exitX=0;exitY=0;exitDx=95;exitDy=0;exitPerimeter=0;entryX=0.48;entryY=1.006;entryDx=0;entryDy=0;entryPerimeter=0;" parent="1" source="SxUi8WEkodUFzkZ-TZNS-1" target="SxUi8WEkodUFzkZ-TZNS-8" edge="1">
          <mxGeometry width="50" height="50" relative="1" as="geometry">
            <mxPoint x="430" y="390" as="sourcePoint" />
            <mxPoint x="480" y="340" as="targetPoint" />
          </mxGeometry>
        </mxCell>
        <mxCell id="SxUi8WEkodUFzkZ-TZNS-16" value="" style="ellipse;whiteSpace=wrap;html=1;aspect=fixed;" parent="1" vertex="1">
          <mxGeometry x="180" y="440" width="30" height="30" as="geometry" />
        </mxCell>
        <mxCell id="SxUi8WEkodUFzkZ-TZNS-17" value="" style="endArrow=none;html=1;rounded=0;exitX=0.5;exitY=0;exitDx=0;exitDy=0;entryX=0;entryY=0;entryDx=200;entryDy=95;entryPerimeter=0;" parent="1" source="SxUi8WEkodUFzkZ-TZNS-16" target="SxUi8WEkodUFzkZ-TZNS-1" edge="1">
          <mxGeometry width="50" height="50" relative="1" as="geometry">
            <mxPoint x="430" y="390" as="sourcePoint" />
            <mxPoint x="480" y="340" as="targetPoint" />
          </mxGeometry>
        </mxCell>
        <mxCell id="SxUi8WEkodUFzkZ-TZNS-18" value="Сенсорний екран" style="text;html=1;strokeColor=none;fillColor=none;align=center;verticalAlign=middle;whiteSpace=wrap;rounded=0;" parent="1" vertex="1">
          <mxGeometry x="165" y="480" width="60" height="30" as="geometry" />
        </mxCell>
      </root>
    </mxGraphModel>
  </diagram>
</mxfile>
